{
    "asset" : {
        "generator" : "Khronos glTF Blender I/O v1.4.35",
        "version" : "2.0"
    },
    "scene" : 0,
    "scenes" : [
        {
            "name" : "Scene",
            "nodes" : [
                0
            ]
        }
    ],
    "nodes" : [
        {
            "mesh" : 0,
            "name" : "low"
        }
    ],
    "materials" : [
        {
            "name" : "blinn2",
            "normalTexture" : {
                "index" : 0,
                "texCoord" : 0
            },
            "occlusionTexture" : {
                "index" : 1,
                "texCoord" : 0
            },
            "pbrMetallicRoughness" : {
                "baseColorTexture" : {
                    "index" : 2,
                    "texCoord" : 0
                },
                "metallicRoughnessTexture" : {
                    "index" : 1,
                    "texCoord" : 0
                }
            }
        }
    ],
    "meshes" : [
        {
            "name" : "Mesh",
            "primitives" : [
                {
                    "attributes" : {
                        "POSITION" : 0,
                        "NORMAL" : 1,
                        "TEXCOORD_0" : 2
                    },
                    "indices" : 3,
                    "material" : 0
                }
            ]
        }
    ],
    "textures" : [
        {
            "sampler" : 0,
            "source" : 0
        },
        {
            "sampler" : 0,
            "source" : 1
        },
        {
            "sampler" : 0,
            "source" : 2
        }
    ],
    "images" : [
        {
            "bufferView" : 4,
            "mimeType" : "image/png",
            "name" : "blinn2_normal"
        },
        {
            "bufferView" : 5,
            "mimeType" : "image/jpeg",
            "name" : "blinn2_occlusionRoughnessMetallic"
        },
        {
            "bufferView" : 6,
            "mimeType" : "image/jpeg",
            "name" : "blinn2_baseColor"
        }
    ],
    "accessors" : [
        {
            "bufferView" : 0,
            "componentType" : 5126,
            "count" : 13115,
            "max" : [
                0.32801809906959534,
                1.782634973526001,
                0.18728415668010712
            ],
            "min" : [
                -0.31723737716674805,
                0.9625109434127808,
                -0.1714058220386505
            ],
            "type" : "VEC3"
        },
        {
            "bufferView" : 1,
            "componentType" : 5126,
            "count" : 13115,
            "type" : "VEC3"
        },
        {
            "bufferView" : 2,
            "componentType" : 5126,
            "count" : 13115,
            "type" : "VEC2"
        },
        {
            "bufferView" : 3,
            "componentType" : 5123,
            "count" : 51717,
            "type" : "SCALAR"
        }
    ],
    "bufferViews" : [
        {
            "buffer" : 0,
            "byteLength" : 157380,
            "byteOffset" : 0
        },
        {
            "buffer" : 0,
            "byteLength" : 157380,
            "byteOffset" : 157380
        },
        {
            "buffer" : 0,
            "byteLength" : 104920,
            "byteOffset" : 314760
        },
        {
            "buffer" : 0,
            "byteLength" : 103434,
            "byteOffset" : 419680
        },
        {
            "buffer" : 0,
            "byteLength" : 1609515,
            "byteOffset" : 523116
        },
        {
            "buffer" : 0,
            "byteLength" : 483064,
            "byteOffset" : 2132632
        },
        {
            "buffer" : 0,
            "byteLength" : 393125,
            "byteOffset" : 2615696
        }
    ],
    "samplers" : [
        {
            "magFilter" : 9729,
            "minFilter" : 9986
        }
    ],
    "buffers" : [
        {
            "byteLength" : 3008824,
            "uri" : "data:application/octet-stream;base64,"
        }
    ]
}
